<svg version="1.1" id="Layer_1" xmlns="http://www.w3.org/2000/svg" xmlns:xlink="http://www.w3.org/1999/xlink" x="0px" y="0px" viewBox="0 0 80 80" style="enable-background:new 0 0 80 80;" xml:space="preserve">
<g>
	<path style="fill:#B0C1D4;" d="M18,77.5c-3.032,0-5.5-2.467-5.5-5.5V8c0-3.033,2.468-5.5,5.5-5.5h44c3.032,0,5.5,2.467,5.5,5.5v64
		c0,3.033-2.468,5.5-5.5,5.5H18z"></path>
	<g>
		<path style="fill:#66798F;" d="M62,3c2.757,0,5,2.243,5,5v64c0,2.757-2.243,5-5,5H18c-2.757,0-5-2.243-5-5V8c0-2.757,2.243-5,5-5
			H62 M62,2H18c-3.314,0-6,2.686-6,6v64c0,3.314,2.686,6,6,6h44c3.314,0,6-2.686,6-6V8C68,4.686,65.314,2,62,2L62,2z"></path>
	</g>
</g>
<g>
	<path style="fill:#D6DFEB;" d="M13,28V8c0-2.761,2.239-5,5-5h44c2.761,0,5,2.239,5,5v20H13z"></path>
</g>
<g>
	<rect x="20.5" y="10.5" style="fill:#BAE0BD;" width="39" height="11"></rect>
	<path style="fill:#5E9C76;" d="M59,11v10H21V11H59 M60,10H20v12h40V10L60,10z"></path>
</g>
<g>
	<rect x="30" y="34" style="fill:#FFFFFF;" width="6" height="6"></rect>
</g>
<g>
	<rect x="20" y="34" style="fill:#FFFFFF;" width="6" height="6"></rect>
</g>
<g>
	<rect x="40" y="34" style="fill:#FFFFFF;" width="6" height="6"></rect>
</g>
<g>
	<rect x="54" y="34" style="fill:#FFEEA3;" width="6" height="6"></rect>
</g>
<g>
	<rect x="30" y="44" style="fill:#FFFFFF;" width="6" height="6"></rect>
</g>
<g>
	<rect x="20" y="44" style="fill:#FFFFFF;" width="6" height="6"></rect>
</g>
<g>
	<rect x="40" y="44" style="fill:#FFFFFF;" width="6" height="6"></rect>
</g>
<g>
	<rect x="54" y="44" style="fill:#FFEEA3;" width="6" height="6"></rect>
</g>
<g>
	<rect x="30" y="54" style="fill:#FFFFFF;" width="6" height="6"></rect>
</g>
<g>
	<rect x="20" y="54" style="fill:#FFFFFF;" width="6" height="6"></rect>
</g>
<g>
	<rect x="40" y="54" style="fill:#FFFFFF;" width="6" height="6"></rect>
</g>
<g>
	<rect x="54" y="54" style="fill:#FFEEA3;" width="6" height="6"></rect>
</g>
<g>
	<rect x="30" y="64" style="fill:#FFFFFF;" width="6" height="6"></rect>
</g>
<g>
	<rect x="20" y="64" style="fill:#FFFFFF;" width="6" height="6"></rect>
</g>
<g>
	<rect x="40" y="64" style="fill:#FFFFFF;" width="6" height="6"></rect>
</g>
<g>
	<rect x="54" y="64" style="fill:#F78F8F;" width="6" height="6"></rect>
</g>
<rect x="54" y="16" style="fill:#5E9C76;" width="2" height="2"></rect>
<rect x="50" y="16" style="fill:#5E9C76;" width="2" height="2"></rect>
<rect x="46" y="16" style="fill:#5E9C76;" width="2" height="2"></rect>
</svg>